<?xml version="1.0" standalone="no"?>
<!DOCTYPE svg PUBLIC "-//W3C//DTD SVG 20010904//EN"
 "http://www.w3.org/TR/2001/REC-SVG-20010904/DTD/svg10.dtd">
<svg version="1.0" xmlns="http://www.w3.org/2000/svg"
 width="106.000000pt" height="106.000000pt" viewBox="0 0 106.000000 106.000000"
 preserveAspectRatio="xMidYMid meet">
<metadata>
Created by potrace 1.11, written by Peter Selinger 2001-2013
</metadata>
<g transform="translate(0.000000,106.000000) scale(0.100000,-0.100000)"
fill="#000000" stroke="none">
<path d="M398 846 c-8 -7 -25 -17 -38 -21 -27 -8 -29 -10 -88 -61 -24 -21 -55
-58 -70 -83 -14 -25 -32 -50 -39 -54 -22 -14 -65 -89 -65 -114 0 -13 -5 -20
-11 -16 -6 4 -7 1 -2 -8 12 -19 14 -49 3 -55 -4 -3 -8 -22 -8 -43 0 -40 32
-79 71 -86 10 -2 35 -20 55 -39 34 -33 42 -36 95 -36 48 0 63 4 90 27 31 26
38 28 141 29 91 0 111 -3 128 -18 10 -10 24 -18 30 -18 5 0 10 -4 10 -10 0 -6
27 -10 60 -10 51 0 65 4 90 27 17 15 40 28 52 30 56 9 98 78 98 162 0 58 -1
61 -50 111 -27 28 -54 48 -60 45 -5 -3 -10 -2 -10 4 0 5 -9 8 -21 6 -22 -4
-69 37 -69 61 0 8 -4 14 -10 14 -5 0 -10 6 -10 14 0 21 -86 95 -135 117 -24
11 -47 24 -50 29 -10 16 -171 12 -187 -4z m193 -47 c5 -8 9 -10 9 -6 0 15 64
-27 105 -68 22 -23 51 -63 65 -91 22 -42 29 -49 56 -50 41 0 101 -39 121 -77
22 -44 21 -112 -4 -145 -31 -41 -41 -38 -36 11 4 35 0 52 -18 81 -23 35 -103
85 -124 77 -5 -2 -20 -5 -31 -6 -61 -8 -125 -92 -119 -157 4 -43 3 -43 -90
-43 l-70 0 -3 45 c-3 53 -18 86 -52 117 -39 35 -96 48 -147 34 -15 -4 -20 -8
-36 -21 -40 -33 -59 -78 -67 -155 0 -5 -9 0 -20 13 -16 19 -17 28 -8 50 6 15
12 47 13 72 3 62 6 71 36 101 28 28 65 78 70 94 12 39 123 121 177 131 8 1 16
4 18 7 11 11 147 -1 155 -14z m246 -342 c31 -28 47 -80 33 -107 -6 -11 -8 -20
-4 -20 4 0 -3 -11 -16 -25 -26 -27 -75 -46 -105 -40 -11 2 -23 4 -26 4 -15 2
-49 40 -59 66 -17 43 -4 92 32 125 48 44 92 43 145 -3z m-487 25 c0 -5 11 -14
24 -21 29 -16 51 -82 37 -110 -6 -10 -8 -21 -5 -24 3 -2 -11 -18 -31 -34 -79
-66 -181 -16 -179 88 0 47 17 74 59 97 23 13 95 16 95 4z"/>
<path d="M452 784 c-17 -7 -33 -10 -36 -7 -7 7 -97 -46 -114 -66 -43 -54 -71
-101 -67 -113 4 -10 25 -14 80 -13 72 1 90 -5 61 -22 -12 -7 -12 -10 0 -21 8
-7 14 -10 14 -7 0 14 59 -30 74 -56 10 -16 14 -29 11 -29 -3 0 0 -10 6 -22 11
-20 12 -21 24 -4 11 14 11 23 2 44 -22 49 -48 80 -77 92 -46 19 -28 26 58 25
56 -1 87 -6 106 -18 34 -23 62 -21 97 4 16 11 29 18 29 14 0 -3 9 -1 20 5 21
11 21 11 -2 52 -13 22 -34 51 -48 65 -64 64 -180 102 -238 77z m145 -55 c46
-22 115 -87 107 -101 -3 -4 -24 2 -47 15 -48 27 -73 29 -69 5 3 -22 -24 -28
-102 -25 l-60 2 -2 57 c-2 54 0 58 25 66 36 12 98 4 148 -19z m-214 -55 c0
-21 -2 -42 -2 -46 -1 -9 -87 -5 -96 4 -8 8 76 89 89 85 6 -2 10 -21 9 -43z
m261 -60 c18 -7 12 -24 -10 -24 -8 0 -14 7 -14 15 0 17 2 18 24 9z"/>
<path d="M740 463 c-24 -5 -64 -59 -66 -88 0 -14 3 -25 8 -25 4 0 8 -5 8 -11
0 -15 25 -38 52 -48 49 -18 114 40 106 94 -7 46 -65 87 -108 78z m53 -48 c10
-4 17 -18 17 -35 0 -66 -87 -72 -94 -5 -5 41 31 60 77 40z"/>
<path d="M254 445 c-12 -8 -27 -27 -33 -44 -16 -36 3 -78 46 -103 26 -15 33
-15 56 -3 15 8 27 11 27 8 0 -3 9 6 20 20 60 76 -37 178 -116 122z m72 -23 c6
-4 16 -17 23 -30 10 -19 8 -26 -13 -47 -29 -28 -34 -30 -58 -11 -27 20 -29 58
-4 78 23 19 35 22 52 10z"/>
</g>
</svg>
